# xmcd
#
# Track frame offsets:
#	150
#	12662
#	26902
#	42542
#	56152
#	69122
#	84210
#	98465
#	112327
#	127857
#	141220
#	163087
#	177462
#	200672
#	213460
#	234527
#
# Disc length: 3697
#
# Revision: 1
# Processed by: cddbd v1.5.1PL0 Copyright (c) Steve Scherf et al.
# Submitted via: CDex 1.51
# Normalized: r0:TDELIM( - )
#
DISCID=e70e6f10
DTITLE=Jazz - Best of Jazz
DYEAR=1900
DGENRE=Jazz
TTITLE0=Gertrude Lawrence - Someone to watch over me
TTITLE1=Bessie Smith - Trombone Cholly
TTITLE2=Blueberry Hills - Louis Armstrong
TTITLE3=Billie Holiday - All of me
TTITLE4=Midge Williams - Where the lazy river goes by
TTITLE5=Hellen Ward - How I am to Know
TTITLE6=Ella Fitzgerald - Bei mer bist tu
TTITLE7=Bing Crosby - Now that I need you
TTITLE8=Lena Horne - Lover man
TTITLE9=Joe Williams - Everybody loves my baby
TTITLE10=Hehen Meril - The thrill is gone
TTITLE11=Judy Garland - Over the rainbow
TTITLE12=Marilyn Monroe - My Heart belongs to Daddy
TTITLE13=Carmen McRae - Nice work if you can get it
TTITLE14=Jackie Paris and Anne Marie Moss - Nothing
TTITLE15=Lambert, Hendricks, Ross - Poppity Pop
EXTD=
EXTT0=
EXTT1=
EXTT2=
EXTT3=
EXTT4=
EXTT5=
EXTT6=
EXTT7=
EXTT8=
EXTT9=
EXTT10=
EXTT11=
EXTT12=
EXTT13=
EXTT14=
EXTT15=
PLAYORDER=
